<?xml version="1.0" encoding="UTF-8" standalone="no"?><!DOCTYPE svg PUBLIC "-//W3C//DTD SVG 1.1//EN" "http://www.w3.org/Graphics/SVG/1.1/DTD/svg11.dtd"><svg width="100%" height="100%" viewBox="0 0 2084 2084" version="1.1" xmlns="http://www.w3.org/2000/svg" xmlns:xlink="http://www.w3.org/1999/xlink" xml:space="preserve" xmlns:serif="http://www.serif.com/" style="fill-rule:evenodd;clip-rule:evenodd;stroke-linejoin:round;stroke-miterlimit:2;"><g id="_4" serif:id="4"><path d="M1510.42,572.917l-0,312.5l-312.5,-0l-0,-312.5l312.5,-0Zm-0,625l-0,312.5l-312.5,-0l-0,-312.5l312.5,-0Zm-625,-0l-0,312.5l-312.5,-0l-0,-312.5l312.5,-0Zm-0,-625l-0,312.5l-312.5,-0l-0,-312.5l312.5,-0Z" style="fill:#ebebeb;"/><path d="M2083.33,0l0,2083.33l-2083.33,0l0,-2083.33l2083.33,0Zm-208.333,208.333l-1666.67,0l0,1666.67l1666.67,-0l-0,-1666.67Z" style="fill:#ebebeb;"/></g></svg>