<?xml version="1.0" encoding="UTF-8" standalone="no"?>
<!DOCTYPE svg PUBLIC "-//W3C//DTD SVG 1.1//EN" "http://www.w3.org/Graphics/SVG/1.1/DTD/svg11.dtd">
<svg width="100%" height="100%" viewBox="0 0 1080 1080" version="1.1" xmlns="http://www.w3.org/2000/svg" xmlns:xlink="http://www.w3.org/1999/xlink" xml:space="preserve" xmlns:serif="http://www.serif.com/" style="fill-rule:evenodd;clip-rule:evenodd;stroke-linejoin:round;stroke-miterlimit:2;">
    <path d="M858.823,580.822L540,580.822L540,499.178L1080,499.178L1080,540C1080,553.733 1079.49,567.346 1078.48,580.822C1057.62,859.987 824.501,1080 540,1080C241.966,1080 0,838.034 0,540C0,241.966 241.966,0 540,0C683.217,0 820.568,56.893 921.838,158.162L864.107,215.893C778.148,129.935 661.564,81.644 540,81.644C287.026,81.644 81.644,287.026 81.644,540C81.644,792.974 287.026,998.356 540,998.356C779.386,998.356 975.91,814.842 996.563,580.822L942.968,580.822C922.499,785.327 749.896,945 540,945C316.474,945 135,763.526 135,540C135,316.474 316.474,135 540,135C647.413,135 750.426,177.67 826.378,253.622L767.257,312.743C706.985,252.47 625.238,218.609 540,218.609C362.62,218.609 218.609,362.62 218.609,540C218.609,717.38 362.62,861.391 540,861.391C703.67,861.391 838.766,739.046 858.823,580.822Z"/>
</svg>
