<?xml version="1.0" encoding="UTF-8" standalone="no"?>
<!DOCTYPE svg PUBLIC "-//W3C//DTD SVG 1.1//EN" "http://www.w3.org/Graphics/SVG/1.1/DTD/svg11.dtd">
<svg width="100%" height="100%" viewBox="0 0 1080 1080" version="1.1" xmlns="http://www.w3.org/2000/svg" xmlns:xlink="http://www.w3.org/1999/xlink" xml:space="preserve" xmlns:serif="http://www.serif.com/" style="fill-rule:evenodd;clip-rule:evenodd;stroke-linejoin:round;stroke-miterlimit:2;">
    <g transform="matrix(1.02712,0,0,0.948091,-29.2944,0)">
        <path d="M28.521,1139.13L28.521,-0L1080,-0L1080,1139.13L28.521,1139.13ZM125.88,1033.66L982.641,1033.66L982.641,105.475L125.88,105.475L125.88,1033.66ZM748.979,464.09L748.979,780.515L359.542,780.515L359.542,358.615L651.62,358.615L651.62,253.14L846.338,253.14L846.338,464.09L748.979,464.09ZM651.62,464.09L456.901,464.09L456.901,675.04L651.62,675.04L651.62,464.09ZM700.299,411.353L797.658,411.353L797.658,305.878L700.299,305.878L700.299,411.353Z" style="fill:white;"/>
    </g>
</svg>
