<?xml version="1.0" encoding="UTF-8" standalone="no"?>
<!DOCTYPE svg PUBLIC "-//W3C//DTD SVG 1.1//EN" "http://www.w3.org/Graphics/SVG/1.1/DTD/svg11.dtd">
<svg width="100%" height="100%" viewBox="0 0 381 918" version="1.1" xmlns="http://www.w3.org/2000/svg" xmlns:xlink="http://www.w3.org/1999/xlink" xml:space="preserve" xmlns:serif="http://www.serif.com/" style="fill-rule:evenodd;clip-rule:evenodd;stroke-linejoin:round;stroke-miterlimit:2;">
    <g transform="matrix(1,0,0,1,-349.927,-81.1954)">
        <g id="path1" transform="matrix(1.52788,0,0,1.52788,224.345,-115.928)">
            <path d="M169.2,129.1C143.792,130.077 134.327,137.327 125.538,162.545C123.062,169.65 122.602,170.464 118.592,174.837C114.719,179.06 112.992,182.89 113.033,187.163C113.069,190.839 115.463,201.721 116.628,203.498C116.997,204.062 117.117,204.79 116.95,205.456C116.702,206.444 116.76,206.501 117.809,206.3C118.719,206.126 119.179,206.345 120.214,207.443C122.759,210.141 126.121,208.692 127.973,204.1C128.261,203.385 128.625,202.8 128.781,202.8C128.937,202.8 129.306,202.35 129.6,201.8C130.223,200.635 130.999,200.512 131.546,201.49C131.759,201.87 132.353,202.185 132.866,202.19C134.026,202.202 134.424,204.351 133.42,205.183C132.086,206.291 133.131,209.008 135.408,210.352C137.873,211.806 139.2,210.9 139.2,207.765C139.2,206.759 139.492,205.733 139.943,205.154C140.352,204.629 140.987,203.615 141.354,202.9C141.72,202.185 142.263,201.6 142.56,201.6C143.503,201.6 143.628,203.776 142.781,205.438C141.77,207.421 141.732,208.87 142.7,208.528C143.904,208.103 145.148,206.746 145.405,205.577C146.183,202.033 147.885,203.37 147.202,206.989C146.927,208.445 146.799,209.732 146.917,209.85C147.825,210.759 150.45,206.853 151.386,203.2C152.035,200.67 153.129,200.609 156.234,202.927C158.657,204.736 161.366,205.967 161.853,205.481C162.355,204.979 160.666,201.951 159.567,201.383C157.817,200.478 155.543,197.566 155.667,196.388C155.819,194.935 154.454,193.239 151.699,191.46C149.18,189.834 147.6,187.22 147.6,184.679C147.6,184.072 147.336,182.943 147.013,182.17C146.691,181.398 146.528,180.26 146.652,179.642C146.775,179.024 146.589,177.397 146.238,176.027C145.078,171.499 145.294,170.232 147.5,168.614C149.742,166.969 149.773,166.965 151.815,168.014C152.899,168.57 153.842,168.761 154.8,168.616C155.57,168.5 158.026,168.317 160.259,168.208C162.491,168.1 164.803,167.827 165.397,167.601L166.477,167.191L165.58,166.464C164.385,165.497 164.844,164.726 167.596,163.074C170.274,161.465 170.57,160.8 168.607,160.8C167.055,160.8 165.899,161.262 164.6,162.402C164.16,162.788 163.129,163.341 162.308,163.63C160.935,164.113 160.866,164.209 161.434,164.838C162.202,165.687 161.581,166.182 160.186,165.832C159.654,165.699 157.649,165.768 155.731,165.986C152.222,166.384 150.8,166.014 150.8,164.702C150.8,163.734 156.517,158.8 158.129,158.377C162.685,157.181 164.079,156.306 161.783,156.081C161.113,156.015 160.046,155.548 159.412,155.042L158.258,154.122L159.057,152.584C160.567,149.673 165.874,148.058 169.255,149.48C171.297,150.338 172.747,150.153 173.289,148.965C174.073,147.243 178.053,145.477 180.416,145.802C182.039,146.025 182.462,145.938 183.167,145.233C184.311,144.089 184.698,144.181 185.354,145.751C185.664,146.494 186.117,147.225 186.359,147.375C186.602,147.525 186.8,148.006 186.8,148.444C186.8,149.471 188.96,150.4 191.348,150.4C192.958,150.4 193.199,150.532 193.965,151.831C194.724,153.117 194.933,153.234 196.037,152.992C197.451,152.681 198.903,153.747 199.866,155.8C200.175,156.46 200.954,157.85 201.595,158.888C202.892,160.986 204.025,165.569 204.489,170.6L204.6,171.8L201.607,171.8C198.311,171.8 197.783,172.248 198.93,174.076C199.248,174.584 199.735,176.26 200.011,177.8C200.663,181.435 201.019,182.34 202.246,183.478C203.182,184.345 203.24,184.355 203.003,183.608C202.862,183.164 202.913,182.8 203.117,182.8C204.297,182.8 206.819,174.162 206.628,170.775C206.524,168.919 206.436,166.815 206.432,166.1C206.428,165.385 206.284,164.8 206.113,164.8C205.941,164.8 205.816,162.955 205.835,160.7C206.038,136.658 196.078,128.066 169.2,129.1M187.72,166.838C186.226,167.275 185.728,167.888 186.355,168.515C186.6,168.76 186.8,169.334 186.8,169.791C186.8,170.248 187.085,171.029 187.433,171.525C187.877,172.16 187.99,172.874 187.813,173.926C187.228,177.384 194.468,180.25 195.791,177.083C196.414,175.592 196.509,170.568 195.935,169.485C195.098,167.908 189.848,166.216 187.72,166.838M197.6,188.605C197.05,188.922 196.127,189.086 195.549,188.97C193.055,188.467 192.519,190.766 194.828,192.064C195.95,192.694 196.525,193.324 196.678,194.089C196.8,194.7 197.068,195.2 197.274,195.2C197.479,195.2 197.519,194.992 197.362,194.738C197.194,194.467 197.251,194.384 197.501,194.539C197.734,194.683 197.831,195.161 197.716,195.6C197.594,196.065 197.704,196.4 197.977,196.4C198.236,196.4 198.336,196.22 198.2,196C198.064,195.78 198.121,195.6 198.326,195.6C198.532,195.6 199.11,194.295 199.612,192.7C200.114,191.105 200.783,189.498 201.099,189.128C201.612,188.527 201.589,188.478 200.882,188.663C200.447,188.777 199.969,188.674 199.822,188.435C199.464,187.856 198.811,187.906 197.6,188.605M194,197.151C194,198.1 195.098,199.062 195.604,198.556C195.807,198.353 195.869,197.784 195.74,197.293C195.45,196.182 194,196.063 194,197.151M153.911,198.623C154.774,199.227 155.082,200.385 154.528,200.939C154.176,201.291 152,199.214 152,198.525C152,197.82 152.825,197.862 153.911,198.623M192,205.363C192,206.161 192.153,206.286 192.9,206.098C194.637,205.659 194.491,204.422 192.7,204.406C192.226,204.402 192,204.71 192,205.363M116.4,210.702C115.63,211.468 115.27,211.969 115.6,211.817C115.93,211.664 115.795,211.897 115.3,212.334C114.805,212.771 114.4,213.314 114.4,213.541C114.4,213.767 114.192,214.081 113.938,214.238C113.628,214.43 113.583,214.34 113.802,213.962C113.982,213.653 113.975,213.54 113.787,213.71C113.6,213.881 113.39,214.421 113.322,214.91C113.223,215.616 113.279,215.676 113.593,215.2C113.928,214.691 113.989,214.71 113.994,215.327C113.999,215.914 115.489,216.014 115.831,215.45C115.847,215.423 116.267,214.725 116.763,213.9C117.259,213.075 117.818,212.4 118.004,212.4C118.826,212.4 119.595,211.138 119.21,210.419C118.55,209.186 117.854,209.256 116.4,210.702M179.2,212.22C179.2,214.982 182.494,217.203 184.206,215.594L185.064,214.788L186.732,215.997C187.952,216.881 188.4,217.484 188.4,218.246C188.4,219.173 188.516,219.257 189.462,219.02C190.15,218.848 190.647,218.938 190.874,219.277C191.088,219.596 191.12,219.333 190.957,218.6C190.81,217.94 190.539,217.207 190.354,216.97C190.165,216.728 190.217,216.343 190.473,216.087C190.811,215.749 190.796,215.477 190.416,215.019C190.135,214.681 189.992,213.954 190.097,213.402C190.321,212.232 189.815,212.127 188.146,212.998C186.607,213.8 186.136,213.758 183.8,212.609C181.472,211.463 179.2,211.271 179.2,212.22M128.2,212.864C126.603,213.683 123.2,218.707 123.2,220.246C123.2,220.914 124.704,220.972 126.274,220.364C129.026,219.297 134.675,218.851 137.439,219.481C139.363,219.92 140.197,219.963 140.519,219.641C140.761,219.399 141.464,219.2 142.08,219.2C144.279,219.2 142.993,217.588 139.606,216.101C138.393,215.568 136.86,214.883 136.2,214.58C131.342,212.35 129.834,212.027 128.2,212.864M106.586,222.454C105.714,223.369 105.225,223.99 105.5,223.835C105.775,223.68 106,223.728 106,223.941C106,224.531 107.856,224.202 108.572,223.485C109.226,222.831 109.211,221.137 108.549,220.916C108.342,220.847 107.458,221.539 106.586,222.454M172.405,221.591C171.796,222.729 173.161,224 174.992,224C176.155,224 176.427,223.83 176.643,222.971C176.98,221.627 176.275,220.874 175.378,221.618C174.818,222.083 174.667,222.063 174.341,221.481C173.831,220.568 172.925,220.62 172.405,221.591M108.4,221.325C108.4,221.394 107.815,221.979 107.1,222.625L105.8,223.8L106.975,222.5C108.07,221.288 108.4,221.016 108.4,221.325M120.543,223.56C118.751,224.201 116.918,224.923 116.469,225.163C116.02,225.403 115.274,225.6 114.81,225.6C111.174,225.6 105.624,231.07 100.996,239.216C97.877,244.705 97.278,245.395 96.358,244.562C95.938,244.182 95.486,243.981 95.353,244.114C94.999,244.468 92.363,257.296 92.596,257.529C92.704,257.638 92.589,257.972 92.34,258.273C92.09,258.573 92,258.933 92.14,259.073C92.279,259.212 92.199,259.56 91.962,259.846C91.725,260.131 91.662,260.576 91.821,260.834C92.029,261.17 92.211,261.123 92.466,260.668C92.661,260.319 93.086,260.135 93.411,260.259C94.101,260.524 94.253,265.789 93.6,266.8C93.263,267.322 93.211,267.315 93.206,266.749C93.203,266.391 92.93,265.874 92.6,265.6C92.27,265.326 92,264.764 92,264.351C92,263.938 91.806,263.6 91.57,263.6C91.333,263.6 91.179,264.095 91.227,264.7C91.275,265.305 91.206,266.07 91.072,266.4C89.243,270.927 89.043,296.69 90.775,304.6C92.996,314.744 93.16,315.753 93.992,324.417C95.038,335.298 95.014,337.672 93.804,343.007C93.256,345.423 92.806,348.181 92.804,349.136C92.8,350.93 91.064,357.986 89.591,362.2C89.129,363.52 88.043,367.66 87.178,371.4C86.313,375.14 85.159,379.69 84.613,381.511C79.824,397.484 81.858,405.544 93.3,415.925C100.27,422.249 108.269,423.464 120.199,420.01C124.267,418.832 124.614,418.892 125.34,420.9C125.678,421.835 126.428,423.86 127.007,425.4C128.355,428.987 132.998,445.126 134.002,449.717C134.794,453.333 138.429,461.6 139.227,461.6C139.458,461.6 139.544,461.768 139.417,461.973C139.29,462.178 139.59,462.628 140.082,462.973C140.575,463.318 140.803,463.606 140.589,463.613C140.375,463.62 140.549,463.89 140.976,464.213C141.404,464.536 141.623,464.8 141.464,464.8C141.305,464.8 141.911,465.797 142.811,467.015C146.429,471.913 147.788,476.112 146.533,478.52C146.166,479.224 145.755,480.34 145.619,481C145.404,482.042 145.176,482.216 143.886,482.324C142.543,482.436 141.699,483.191 142.9,483.206C143.252,483.21 143.232,483.318 142.833,483.571C141.211,484.598 146.059,488.366 149.04,488.396C149.885,488.404 153.715,483.553 154.041,482.062C154.993,477.712 155.201,476.59 155.413,474.686C156.925,461.08 157.402,458.933 159.159,457.822C162.046,455.996 173.719,449.866 174.647,449.689L175.6,449.507L175.591,454.853C175.587,457.794 175.334,462.999 175.031,466.421C174.627,470.968 174.578,473.973 174.847,477.589L175.216,482.537L174.108,484.128C173.499,485.004 172.401,486.908 171.669,488.36C169.739,492.188 166.108,498.212 165.352,498.84C164.437,499.599 158.675,499.943 155.772,499.412C154.518,499.182 153.995,499.262 153.5,499.757C153.147,500.111 152.654,500.4 152.405,500.4C152.156,500.4 152.066,500.583 152.204,500.807C152.342,501.03 152.623,501.109 152.828,500.983C153.032,500.856 153.2,500.923 153.2,501.13C153.2,501.338 154.017,502.501 155.017,503.715C157.43,506.647 157.57,507.263 157.99,516.8C158.469,527.657 164.679,552.324 170.768,567.551C171.932,570.461 171.723,570.987 165.943,579.652C162.13,585.369 159.856,589.451 154.443,600.289C147.913,613.365 146.96,615.449 143.784,623.6C140.196,632.805 138.228,637.189 130.496,653.2C121.146,672.559 118.507,677.428 114.703,682.326C113.22,684.237 111.253,686.88 110.334,688.2C109.414,689.52 107.869,691.49 106.9,692.577C102.881,697.089 98.173,710.618 100.216,711.783C100.618,712.012 101.679,712.837 102.574,713.615C106.966,717.436 109.627,718.296 119.8,719.184C124.666,719.608 126.094,719.137 130.992,715.492C134.972,712.531 137.394,712.581 141.329,715.704C142.363,716.524 142.838,716.593 146.916,716.523C149.727,716.474 151.573,716.611 151.913,716.894C153.909,718.55 154.651,717.133 153.381,714.092C152.642,712.323 155.93,706.505 159.6,703.087C165.925,697.196 177.602,679.534 188.22,659.8C189.285,657.82 190.785,655.211 191.553,654.003C193.24,651.348 199.171,639.132 204.081,628.2C206.057,623.8 208.105,619.255 208.632,618.1C209.159,616.945 209.457,615.997 209.295,615.994C209.133,615.991 209.209,615.855 209.465,615.692C209.72,615.529 210.678,613.687 211.593,611.598C212.508,609.509 213.855,606.54 214.588,605C221.596,590.257 224.552,582.878 225.056,578.874C225.158,578.064 225.333,576.77 225.445,576C225.558,575.23 225.766,573.7 225.909,572.6C226.317,569.462 226.138,543.783 225.621,531.2C225.158,519.944 225.534,509.395 226.449,507.924C227.284,506.582 229.424,510.516 231.823,517.8C232.33,519.34 233.662,522.833 234.784,525.563C236.974,530.893 238.236,535.056 239.584,541.4C240.475,545.59 244.224,559.878 244.885,561.6C245.381,562.892 251.019,580.068 254.077,589.6C259.634,606.925 260.009,608.247 260.383,611.8C260.591,613.78 261.031,616.84 261.36,618.6C263.856,631.929 264.904,636.884 267.198,646.2C271.552,663.882 273.499,674.605 272.816,677.142C271.456,682.192 270.337,695.057 270.602,702.6C270.761,707.146 270.687,712.795 270.415,716.659C269.963,723.103 270.307,728.048 271.248,728.63C271.449,728.754 271.494,729.068 271.348,729.328C271.153,729.675 271.21,729.683 271.562,729.359C271.887,729.061 273.894,728.981 277.761,729.112C284.02,729.325 288.93,728.496 296.2,726.001C297.96,725.397 301.02,724.414 303,723.816C311.779,721.164 323.245,713.219 327.321,706.964C328.024,705.884 329.14,704.73 329.8,704.4C330.46,704.07 331,703.585 331,703.323C331,702.576 325.696,694.639 323.217,691.676C321.986,690.204 320.443,688.294 319.789,687.431L318.6,685.863L318.345,678.231C318.204,674.034 317.894,668.8 317.655,666.6C317.417,664.4 316.943,658.91 316.604,654.4C315.777,643.418 315.34,638.248 314.354,627.8C313.898,622.96 313.538,618.46 313.555,617.8C313.572,617.14 313.326,613.63 313.01,610C312.306,601.928 312.127,599.67 311.807,594.8C311.67,592.71 311.377,589.47 311.157,587.6C310.937,585.73 310.681,583.12 310.588,581.8C310.495,580.48 310.346,578.68 310.257,577.8C309.865,573.944 309.617,571.692 309.421,570.2C308.937,566.513 308.842,565.68 308.633,563.273C308.512,561.883 308.288,560.542 308.134,560.293C307.98,560.044 307.814,559.471 307.764,559.02C307.436,556.047 307.151,554.245 306.959,553.933C306.836,553.735 306.655,552.918 306.556,552.116C306.321,550.225 304.378,541.515 304.08,541.017C303.953,540.806 303.803,540.196 303.746,539.661C303.689,539.126 303.518,538.398 303.366,538.044C303.214,537.69 303.053,537.13 303.009,536.8C302.783,535.114 302.297,533.6 301.981,533.6C301.785,533.6 301.729,533.33 301.855,533C301.982,532.67 301.931,532.4 301.743,532.4C301.554,532.4 301.376,531.977 301.346,531.462C301.317,530.946 300.883,529.641 300.382,528.562C299.881,527.483 299.446,526.51 299.416,526.4C299.056,525.1 298.668,524.4 298.306,524.4C298.065,524.4 297.982,524.285 298.123,524.144C298.396,523.871 297.197,521.6 296.78,521.6C296.645,521.6 296.533,521.368 296.533,521.085C296.533,520.357 294.399,516.8 293.962,516.8C293.763,516.8 293.637,516.665 293.682,516.5C293.821,515.993 292.405,513.6 291.966,513.6C291.739,513.6 291.647,513.447 291.763,513.261C291.878,513.074 291.653,512.579 291.264,512.161C290.874,511.742 290.537,511.31 290.515,511.2C290.358,510.428 289.407,508.8 289.112,508.8C288.915,508.8 288.864,508.62 289,508.4C289.136,508.18 289.046,508 288.8,508C288.554,508 288.447,507.847 288.563,507.661C288.678,507.474 288.464,506.972 288.086,506.545C287.709,506.118 287.345,505.506 287.278,505.184C287.211,504.863 286.899,504.402 286.584,504.16C286.27,503.919 286.13,503.604 286.273,503.46C286.416,503.317 286.313,503.2 286.043,503.2C285.773,503.2 285.647,503.047 285.763,502.861C285.878,502.674 285.653,502.179 285.264,501.761C284.874,501.342 284.522,500.82 284.481,500.6C284.44,500.38 284.15,499.9 283.836,499.534C283.522,499.167 283.371,498.762 283.5,498.634C283.628,498.505 283.559,498.4 283.347,498.4C283.135,498.4 282.733,497.77 282.454,497C282.176,496.23 281.769,495.6 281.551,495.6C281.332,495.6 281.247,495.447 281.363,495.261C281.478,495.074 281.212,494.534 280.771,494.061C280.33,493.587 280.081,493.2 280.217,493.2C280.451,493.2 278.896,490.43 278.421,490C278.3,489.89 278.17,489.62 278.133,489.4C278.018,488.717 274.287,482.217 273.831,481.906C273.594,481.744 273.537,481.609 273.705,481.606C274.09,481.598 271.227,475.848 270.748,475.666C270.554,475.592 270.497,475.367 270.621,475.166C270.745,474.965 270.646,474.8 270.4,474.8C270.154,474.8 270.064,474.62 270.2,474.4C270.336,474.18 270.246,474 270,474C269.754,474 269.664,473.82 269.8,473.6C269.936,473.38 269.846,473.2 269.6,473.2C269.354,473.2 269.264,473.02 269.4,472.8C269.536,472.58 269.487,472.4 269.29,472.4C269.094,472.4 268.926,472.175 268.917,471.9C268.908,471.625 267.515,468.358 265.82,464.64C264.041,460.737 262.822,457.56 262.936,457.124C263.091,456.53 262.972,456.418 262.382,456.606C259.719,457.451 252.635,445.286 253.071,440.616C253.362,437.506 252.709,435.403 249.971,430.628C247.769,426.788 247.794,426 250.117,426C250.788,426 251.662,425.706 252.058,425.347C252.675,424.789 252.958,424.768 254.004,425.202C254.769,425.518 256.114,425.628 257.592,425.494C261.209,425.166 261.959,426.377 261.999,432.6C262.019,435.835 262.33,436.797 263.33,436.714C264.225,436.64 264.921,433.6 264.044,433.6C263.838,433.6 263.752,432.871 263.855,431.981C264.008,430.65 263.877,430.221 263.12,429.575C262.549,429.087 262.428,428.829 262.8,428.894C263.574,429.031 263.553,428.607 262.407,421.11C262.004,418.472 261.767,417.75 261.437,418.156C260.938,418.768 255.651,420.977 253.7,421.389C249.976,422.175 253.248,418.029 257.489,416.587C259.114,416.035 259.49,415.77 259.021,415.508C258.235,415.068 258.225,414.243 259,413.6C259.467,413.213 259.728,413.208 260.176,413.58C260.961,414.232 258.74,408.512 256.922,405.2C255.128,401.933 251.957,397.477 245.915,389.736C241.453,384.018 239.655,380.971 238.401,377C238.123,376.12 237.741,375.203 237.551,374.963C237.362,374.723 237.325,374.408 237.47,374.263C237.615,374.118 237.564,374 237.358,374C236.738,374 236,378.008 235.994,381.412C235.99,383.165 235.81,386.746 235.592,389.369C235.13,394.946 235.678,399.144 237.364,402.956C239.043,406.754 238.408,407.436 234.4,406.139C231.59,405.23 227.354,405.256 223.404,406.208C220.47,406.915 218.31,407.179 215.757,407.142C209.102,407.045 193.782,408.213 188.8,409.197C178.67,411.197 172.121,411.892 171.286,411.057C170.958,410.729 169.825,407.882 168.768,404.731C167.711,401.579 166.186,397.2 165.379,395C163.396,389.599 160.421,380.798 158.685,375.2C157.901,372.67 156.706,368.823 156.029,366.652C155.115,363.717 154.798,361.921 154.793,359.652C154.786,356.632 154.116,351.546 153.141,347.104C152.424,343.838 152.947,342.647 160.258,330.92C161.657,328.677 163.596,325.257 164.568,323.32C165.539,321.384 167.059,318.36 167.944,316.6C170.729,311.068 176.272,299.433 176.569,298.496C176.726,298.003 177.203,297.412 177.63,297.184C180.699,295.541 185.6,278.398 185.6,269.303C185.6,267.169 185.783,265.577 186.059,265.301C186.405,264.955 186.356,264.592 185.859,263.835C185.497,263.281 185.2,262.566 185.2,262.245C185.2,261.924 184.75,261.127 184.2,260.473C183.65,259.819 183.2,259.059 183.2,258.783C183.2,258.508 182.851,257.274 182.425,256.041C181.999,254.808 181.541,253.131 181.409,252.313C180.908,249.213 178.8,248.96 178.8,252C178.8,252.871 178.539,253.719 178.178,254.018C177.656,254.452 177.598,255.185 177.82,258.567C178.28,265.592 174.559,282.235 170.954,289.278C170.539,290.089 170.507,290.628 170.824,291.462C171.372,292.906 171.15,293.672 169.273,296.8C168.415,298.23 167.485,300.12 167.207,301C166.929,301.88 166.319,303.016 165.851,303.524C164.893,304.564 160.662,312.044 158.794,316C155.752,322.441 152.785,327.662 152.266,327.489C151.564,327.255 151.187,324.821 151.442,322.177C151.603,320.515 151.476,319.079 151.038,317.604C150.687,316.422 150.402,314.542 150.404,313.427C150.409,310.593 149.652,303.753 149.095,301.6C148.839,300.61 148.592,298 148.546,295.8C148.501,293.6 148.349,290.81 148.209,289.6C147.975,287.567 148.127,286.974 150.21,281.8C153.843,272.78 154.051,267.102 151.221,254.2C150.787,252.22 150.424,249.774 150.416,248.764C150.396,246.434 149.62,243.847 148.327,241.8C147.771,240.92 146.726,238.85 146.004,237.2C141.091,225.972 130.163,220.118 120.543,223.56M144.289,225.262C145.34,226.851 145.767,227.1 146.211,226.382C146.617,225.725 145.351,224.122 144.26,223.914L143.271,223.725L144.289,225.262M188.806,225.5C188.803,225.775 188.475,226 188.078,226C187.682,226 186.752,226.624 186.012,227.388L184.667,228.775L185.41,230.488C185.818,231.429 186.333,232.441 186.554,232.735C186.776,233.03 186.918,234.02 186.871,234.935C186.759,237.094 187.232,237.752 188.977,237.864C190.131,237.937 190.4,237.814 190.4,237.209C190.4,236.447 190.739,236.324 194.3,235.786C196.285,235.487 196.382,235.187 194.93,233.84C193.973,232.953 193.755,232.903 192.87,233.367C192.126,233.756 191.597,233.778 190.74,233.455C189.437,232.963 189.218,231.775 190.364,231.411C190.785,231.278 191.43,230.709 191.798,230.147L192.468,229.124L193.422,230.02C193.946,230.513 194.263,231.098 194.126,231.32C193.978,231.559 194.078,231.599 194.371,231.418C194.73,231.196 194.563,230.796 193.762,229.96C193.155,229.327 192.576,228.89 192.476,228.991C192.376,229.091 191.943,228.727 191.515,228.183C191.086,227.638 190.566,227.297 190.358,227.426C190.15,227.554 190.03,227.421 190.09,227.13C190.151,226.838 189.962,226.649 189.67,226.71C189.379,226.77 189.232,226.672 189.344,226.491C189.456,226.31 189.382,225.9 189.18,225.581C188.928,225.182 188.81,225.157 188.806,225.5M181.491,227.554C181.102,227.698 180.437,228.385 180.014,229.08C179.388,230.11 178.89,230.401 177.323,230.652C176.265,230.822 175.265,230.992 175.1,231.03C174.935,231.069 174.665,231.128 174.5,231.162C173.66,231.336 175.955,232.111 177.842,232.29C180.153,232.509 181.2,232.046 181.2,230.805C181.2,230.422 181.583,229.621 182.051,229.025C182.959,227.872 182.672,227.116 181.491,227.554M181.396,233.219C181.249,233.89 180.771,234.655 180.335,234.919C177.599,236.578 178.03,241.2 180.921,241.2C182.632,241.2 183.968,237.728 182.733,236.493C182.377,236.137 182.377,235.655 182.733,234.466C183.368,232.347 183.326,232 182.432,232C181.901,232 181.581,232.376 181.396,233.219M175.467,235.467C175.02,235.913 175.168,236.4 175.751,236.4C176.054,236.4 176.526,236.13 176.8,235.8C177.322,235.172 176.074,234.86 175.467,235.467M182,242.705C182,243.956 182.42,244.8 183.043,244.8C183.869,244.8 183.718,243.431 182.8,242.6C182.024,241.898 182,241.901 182,242.705M175.202,295.095C173.222,299.519 166.362,313.276 164.178,317.2C158.535,327.339 152.559,337.347 152.045,337.518C151.418,337.727 151.491,335.936 152.148,334.989C156.046,329.375 174.396,295.123 174.401,293.449C174.405,292.412 176.05,290.29 176.501,290.741C176.832,291.072 176.491,292.212 175.202,295.095M203.867,303.467C203.379,303.954 203.591,304.8 204.2,304.8C204.904,304.8 204.992,305.648 204.355,306.285C203.825,306.815 204.216,307.6 205.01,307.6C205.837,307.6 206.357,306.361 206.103,304.996C205.818,303.464 204.661,302.672 203.867,303.467M218,322.738C218,322.979 217.73,323.071 217.4,322.945C217.033,322.804 216.8,322.945 216.8,323.307C216.8,323.674 217.184,323.9 217.807,323.9C219.056,323.9 219.38,323.447 218.596,322.796C218.201,322.469 218,322.449 218,322.738M217.784,349.225C217.64,349.459 217.809,349.968 218.161,350.357C218.512,350.745 218.8,351.435 218.8,351.889C218.8,352.703 219.695,353.372 220.161,352.906C220.619,352.447 220.396,350.572 219.777,349.689C219.112,348.739 218.214,348.53 217.784,349.225M232.532,358.167C232.679,358.551 232.8,359.031 232.8,359.233C232.8,359.435 232.963,359.6 233.163,359.6C233.628,359.6 233.237,358.07 232.684,357.728C232.42,357.565 232.364,357.728 232.532,358.167M209.2,376.2C208.562,376.969 209.213,376.977 210.224,376.213C210.876,375.719 210.896,375.623 210.349,375.613C209.991,375.606 209.474,375.87 209.2,376.2M222.883,396.9C222.285,397.621 222.694,401.2 223.374,401.2C224.835,401.2 225.281,398.683 224.083,397.203C223.467,396.442 223.298,396.4 222.883,396.9M262.8,440.586C262.8,440.933 263.147,441.2 263.6,441.2C264.04,441.2 264.4,441.116 264.4,441.014C264.4,440.912 264.04,440.635 263.6,440.4C262.961,440.058 262.8,440.096 262.8,440.586M140.65,483.314C139.992,483.795 140.018,483.837 140.968,483.819C141.537,483.809 142.016,483.625 142.031,483.41C142.077,482.789 141.429,482.744 140.65,483.314M138.213,486.358C137.621,488.225 137.665,489.607 138.329,489.955C139.334,490.483 142.4,490.92 142.399,490.535C142.395,489.827 140.792,487.613 139.823,486.978C139.264,486.612 138.906,486.152 139.027,485.956C139.148,485.76 139.069,485.6 138.851,485.6C138.632,485.6 138.346,485.941 138.213,486.358M142.101,497.771L141.202,498.273L142.196,498.726C143.413,499.28 144.355,498.976 144.223,498.072C144.1,497.234 143.274,497.116 142.101,497.771"/>
        </g>
    </g>
</svg>
